<svg width="500" height="500" fill="none" xmlns="http://www.w3.org/2000/svg"><path d="M139.97 96h72.819v210.081c-.099 19.683-4.825 36.893-14.176 51.63-9.351 14.638-22.283 26.013-38.797 34.123C143.402 399.945 124.401 404 102.814 404c-19.1 0-36.46-3.313-52.078-9.94-15.518-6.627-27.904-16.914-37.155-30.86C4.428 349.254-.098 331.401 0 309.642h73.566c.298 7.813 1.79 14.49 4.477 20.029 2.785 5.439 6.615 9.544 11.49 12.314 4.874 2.769 10.694 4.154 17.458 4.154 7.063 0 13.032-1.484 17.907-4.451 4.874-3.066 8.555-7.567 11.042-13.501 2.586-5.935 3.929-13.303 4.029-22.106V96ZM258.115 399.846v-41.838l148.473-202.366H212.789V96H500v41.838L351.526 340.204h148.325v59.642H258.115Z" fill="#fff"/><ellipse cx="283.5" cy="217" rx="36.5" ry="36" fill="#fff"/></svg>