<svg width="3797" height="399" fill="none" xmlns="http://www.w3.org/2000/svg"><g clip-path="url(#a)"><path fill="#FFD600" d="M0 0h3797v399H0z"/><path fill="#000" d="M-724 855.035 961.035-830l79.068 79.068L-644.932 934.103zM-585 994.035 1100.035-691l79.068 79.068-1685.035 1685.035zM-389 1069.04 1296.035-615.995l78.194 78.194-1685.035 1685.035zM-200 1155.04 1485.035-529.995l78.194 78.194-1685.035 1685.035zM-11 1241.04 1674.035-443.995l78.194 78.194L67.194 1319.234zM178 1327.04 1863.035-357.995l78.194 78.194L256.194 1405.234zM367 1413.04 2052.035-271.995l78.194 78.194L445.194 1491.234zM556 1499.04 2241.035-185.995l78.194 78.194L634.194 1577.234zM745 1585.04 2618.451-288.411l78.194 78.194L823.194 1663.234zM934 1671.04 2819.988-214.948l78.194 78.194-1885.988 1885.988zM1123 1757.04 3144.017-263.977l78.194 78.194-2021.017 2021.017zM1312 1843.04 3362.249-207.209l78.194 78.194-2050.249 2050.249zM1501 1929.04 3629.208-199.168l78.194 78.194-2128.208 2128.208zM1690 2015.04 3851.618-146.578l78.194 78.194-2161.618 2161.618zM1879 2101.04 3887.501 92.539l78.194 78.194-2008.501 2008.501zM2068 2187.04 4141.93 113.11l78.194 78.194-2073.93 2073.93z"/><path d="M66 51h3664v297H66V51Z" fill="#FFD600"/><path d="m1240.35 244-26.64-93.091h21.5l15.41 64.682h.78l17-64.682h18.4l16.96 64.818h.82l15.41-64.818h21.5L1314.85 244h-19.18l-17.73-60.864h-.73L1259.53 244h-19.18Zm193.89-46.545c0 10.151-1.93 18.787-5.78 25.909-3.81 7.121-9.03 12.56-15.63 16.318-6.58 3.727-13.97 5.591-22.18 5.591-8.28 0-15.7-1.879-22.28-5.637-6.57-3.757-11.77-9.197-15.59-16.318-3.82-7.121-5.73-15.742-5.73-25.863 0-10.152 1.91-18.788 5.73-25.91 3.82-7.121 9.02-12.545 15.59-16.272 6.58-3.758 14-5.637 22.28-5.637 8.21 0 15.6 1.879 22.18 5.637 6.6 3.727 11.82 9.151 15.63 16.272 3.85 7.122 5.78 15.758 5.78 25.91Zm-19.96 0c0-6.576-.98-12.122-2.95-16.637-1.94-4.515-4.68-7.939-8.23-10.273-3.55-2.333-7.7-3.5-12.45-3.5-4.76 0-8.91 1.167-12.46 3.5-3.54 2.334-6.3 5.758-8.27 10.273-1.94 4.515-2.91 10.061-2.91 16.637 0 6.575.97 12.121 2.91 16.636 1.97 4.515 4.73 7.939 8.27 10.273 3.55 2.333 7.7 3.5 12.46 3.5 4.75 0 8.9-1.167 12.45-3.5 3.55-2.334 6.29-5.758 8.23-10.273 1.97-4.515 2.95-10.061 2.95-16.636ZM1450.74 244v-93.091h36.72c7.03 0 13.03 1.258 18 3.773 5 2.485 8.81 6.015 11.41 10.591 2.64 4.545 3.96 9.894 3.96 16.045 0 6.182-1.34 11.5-4 15.955-2.67 4.424-6.53 7.818-11.59 10.182-5.03 2.363-11.13 3.545-18.28 3.545h-24.59v-15.818h21.41c3.76 0 6.88-.515 9.36-1.546 2.49-1.03 4.34-2.575 5.55-4.636 1.24-2.061 1.86-4.621 1.86-7.682 0-3.091-.62-5.697-1.86-7.818-1.21-2.121-3.08-3.727-5.59-4.818-2.49-1.121-5.62-1.682-9.41-1.682h-13.27v77h-19.68Zm50.27-42.364L1524.14 244h-21.72l-22.64-42.364h21.23ZM1536.66 244v-93.091h19.68v41.046h1.23l33.5-41.046h23.59l-34.55 41.682L1615.07 244h-23.55l-25.5-38.273-9.68 11.818V244h-19.68Zm172.94-93.091V244h-19.68v-93.091h19.68Zm95.97 0V244h-17l-40.5-58.591h-.68V244h-19.68v-93.091h17.27l40.19 58.546h.81v-58.546h19.59ZM1886.85 244v-93.091h36.72c7.06 0 13.08 1.349 18.05 4.046 4.97 2.666 8.76 6.378 11.36 11.136 2.64 4.727 3.96 10.182 3.96 16.364 0 6.181-1.34 11.636-4 16.363-2.67 4.727-6.53 8.409-11.59 11.046-5.03 2.636-11.13 3.954-18.28 3.954h-23.41v-15.773h20.23c3.79 0 6.91-.651 9.37-1.954 2.48-1.333 4.33-3.167 5.54-5.5 1.24-2.364 1.86-5.076 1.86-8.136 0-3.091-.62-5.788-1.86-8.091-1.21-2.334-3.06-4.137-5.54-5.409-2.49-1.303-5.64-1.955-9.46-1.955h-13.27v77h-19.68Zm84.79 0v-93.091h36.73c7.03 0 13.03 1.258 18 3.773 5 2.485 8.8 6.015 11.41 10.591 2.63 4.545 3.95 9.894 3.95 16.045 0 6.182-1.33 11.5-4 15.955-2.66 4.424-6.53 7.818-11.59 10.182-5.03 2.363-11.12 3.545-18.27 3.545h-24.59v-15.818h21.41c3.75 0 6.88-.515 9.36-1.546 2.48-1.03 4.33-2.575 5.55-4.636 1.24-2.061 1.86-4.621 1.86-7.682 0-3.091-.62-5.697-1.86-7.818-1.22-2.121-3.08-3.727-5.6-4.818-2.48-1.121-5.62-1.682-9.4-1.682h-13.28v77h-19.68Zm50.27-42.364L2045.05 244h-21.73l-22.63-42.364h21.22Zm121.2-4.181c0 10.151-1.93 18.787-5.78 25.909-3.81 7.121-9.03 12.56-15.63 16.318-6.58 3.727-13.97 5.591-22.18 5.591-8.28 0-15.7-1.879-22.28-5.637-6.57-3.757-11.77-9.197-15.59-16.318-3.82-7.121-5.73-15.742-5.73-25.863 0-10.152 1.91-18.788 5.73-25.91 3.82-7.121 9.02-12.545 15.59-16.272 6.58-3.758 14-5.637 22.28-5.637 8.21 0 15.6 1.879 22.18 5.637 6.6 3.727 11.82 9.151 15.63 16.272 3.85 7.122 5.78 15.758 5.78 25.91Zm-19.96 0c0-6.576-.98-12.122-2.95-16.637-1.94-4.515-4.68-7.939-8.23-10.273-3.55-2.333-7.7-3.5-12.45-3.5-4.76 0-8.91 1.167-12.46 3.5-3.54 2.334-6.3 5.758-8.27 10.273-1.94 4.515-2.91 10.061-2.91 16.637 0 6.575.97 12.121 2.91 16.636 1.97 4.515 4.73 7.939 8.27 10.273 3.55 2.333 7.7 3.5 12.46 3.5 4.75 0 8.9-1.167 12.45-3.5 3.55-2.334 6.29-5.758 8.23-10.273 1.97-4.515 2.95-10.061 2.95-16.636ZM2221.33 181c-.63-2.212-1.53-4.167-2.68-5.864a16.495 16.495 0 0 0-4.23-4.363c-1.63-1.212-3.51-2.137-5.63-2.773-2.09-.636-4.41-.955-6.96-.955-4.75 0-8.94 1.182-12.54 3.546-3.58 2.364-6.37 5.803-8.37 10.318-2 4.485-3 9.97-3 16.455 0 6.484.99 12 2.96 16.545 1.97 4.546 4.76 8.015 8.36 10.409 3.61 2.364 7.87 3.546 12.78 3.546 4.45 0 8.25-.788 11.4-2.364 3.19-1.606 5.61-3.864 7.28-6.773 1.69-2.909 2.54-6.348 2.54-10.318l4 .591h-24v-14.818h38.96v11.727c0 8.182-1.73 15.212-5.18 21.091-3.46 5.848-8.22 10.364-14.28 13.545-6.06 3.152-13 4.728-20.82 4.728-8.72 0-16.39-1.925-23-5.773-6.6-3.879-11.75-9.379-15.45-16.5-3.67-7.152-5.5-15.636-5.5-25.455 0-7.545 1.09-14.272 3.27-20.181 2.21-5.94 5.31-10.97 9.28-15.091a39.985 39.985 0 0 1 13.86-9.409c5.27-2.152 10.98-3.228 17.14-3.228 5.27 0 10.18.773 14.72 2.319 4.55 1.515 8.58 3.666 12.09 6.454a35.02 35.02 0 0 1 8.69 9.955c2.24 3.818 3.68 8.03 4.31 12.636h-20Zm37.57 63v-93.091h36.73c7.03 0 13.03 1.258 18 3.773 5 2.485 8.8 6.015 11.41 10.591 2.63 4.545 3.95 9.894 3.95 16.045 0 6.182-1.33 11.5-4 15.955-2.66 4.424-6.53 7.818-11.59 10.182-5.03 2.363-11.12 3.545-18.27 3.545h-24.59v-15.818h21.41c3.75 0 6.88-.515 9.36-1.546 2.48-1.03 4.33-2.575 5.55-4.636 1.24-2.061 1.86-4.621 1.86-7.682 0-3.091-.62-5.697-1.86-7.818-1.22-2.121-3.08-3.727-5.6-4.818-2.48-1.121-5.62-1.682-9.4-1.682h-13.28v77h-19.68Zm50.27-42.364L2332.31 244h-21.73l-22.63-42.364h21.22ZM2344.82 244v-93.091h62.73v16.227h-43.05v22.182h39.82v16.227h-39.82v22.228h43.23V244h-62.91Zm130.8-66.318c-.37-3.667-1.93-6.515-4.69-8.546-2.75-2.03-6.5-3.045-11.22-3.045-3.22 0-5.93.454-8.14 1.364-2.21.878-3.91 2.106-5.09 3.681-1.15 1.576-1.73 3.364-1.73 5.364-.06 1.667.29 3.121 1.05 4.364.79 1.242 1.86 2.318 3.22 3.227 1.37.879 2.94 1.651 4.73 2.318 1.79.636 3.7 1.182 5.73 1.636l8.36 2c4.06.91 7.79 2.122 11.18 3.637 3.4 1.515 6.34 3.379 8.82 5.591a23.272 23.272 0 0 1 5.78 7.818c1.39 3 2.1 6.439 2.13 10.318-.03 5.697-1.48 10.636-4.36 14.818-2.85 4.152-6.97 7.379-12.37 9.682-5.36 2.273-11.83 3.409-19.4 3.409-7.52 0-14.06-1.151-19.64-3.454-5.55-2.303-9.88-5.712-13-10.228-3.09-4.545-4.71-10.166-4.86-16.863h19.04c.21 3.121 1.11 5.727 2.68 7.818 1.61 2.061 3.75 3.621 6.41 4.682 2.7 1.03 5.74 1.545 9.14 1.545 3.33 0 6.23-.485 8.68-1.454 2.49-.97 4.41-2.319 5.77-4.046 1.37-1.727 2.05-3.712 2.05-5.954 0-2.091-.62-3.849-1.87-5.273-1.21-1.424-3-2.636-5.36-3.636-2.33-1-5.2-1.91-8.59-2.728l-10.14-2.545c-7.84-1.909-14.04-4.894-18.59-8.955-4.54-4.06-6.8-9.53-6.77-16.409-.03-5.636 1.47-10.56 4.5-14.773 3.06-4.212 7.26-7.5 12.59-9.863 5.33-2.364 11.4-3.546 18.18-3.546 6.91 0 12.94 1.182 18.09 3.546 5.19 2.363 9.22 5.651 12.09 9.863 2.88 4.213 4.37 9.091 4.46 14.637h-18.86Zm85.79 0c-.36-3.667-1.92-6.515-4.68-8.546-2.76-2.03-6.5-3.045-11.23-3.045-3.21 0-5.92.454-8.13 1.364-2.22.878-3.91 2.106-5.1 3.681-1.15 1.576-1.72 3.364-1.72 5.364-.06 1.667.29 3.121 1.04 4.364.79 1.242 1.87 2.318 3.23 3.227 1.36.879 2.94 1.651 4.73 2.318a48.98 48.98 0 0 0 5.72 1.636l8.37 2c4.06.91 7.79 2.122 11.18 3.637 3.39 1.515 6.33 3.379 8.82 5.591 2.48 2.212 4.41 4.818 5.77 7.818 1.39 3 2.11 6.439 2.14 10.318-.03 5.697-1.49 10.636-4.37 14.818-2.84 4.152-6.97 7.379-12.36 9.682-5.36 2.273-11.83 3.409-19.41 3.409-7.51 0-14.06-1.151-19.64-3.454-5.54-2.303-9.87-5.712-13-10.228-3.09-4.545-4.71-10.166-4.86-16.863h19.05c.21 3.121 1.1 5.727 2.68 7.818 1.6 2.061 3.74 3.621 6.41 4.682 2.69 1.03 5.74 1.545 9.13 1.545 3.34 0 6.23-.485 8.69-1.454 2.48-.97 4.4-2.319 5.77-4.046 1.36-1.727 2.04-3.712 2.04-5.954 0-2.091-.62-3.849-1.86-5.273-1.21-1.424-3-2.636-5.36-3.636-2.34-1-5.2-1.91-8.59-2.728l-10.14-2.545c-7.85-1.909-14.05-4.894-18.59-8.955-4.55-4.06-6.8-9.53-6.77-16.409-.03-5.636 1.47-10.56 4.5-14.773 3.06-4.212 7.25-7.5 12.59-9.863 5.33-2.364 11.39-3.546 18.18-3.546 6.91 0 12.94 1.182 18.09 3.546 5.18 2.363 9.21 5.651 12.09 9.863 2.88 4.213 4.36 9.091 4.45 14.637h-18.86Z" fill="#000"/></g><defs><clipPath id="a"><path fill="#fff" d="M0 0h3797v399H0z"/></clipPath></defs></svg>